<?xml version="1.0" encoding="utf-8"?>
<!-- Generator: Adobe Illustrator 17.1.0, SVG Export Plug-In . SVG Version: 6.00 Build 0)  -->
<!DOCTYPE svg PUBLIC "-//W3C//DTD SVG 1.1//EN" "http://www.w3.org/Graphics/SVG/1.1/DTD/svg11.dtd">
<svg version="1.1" xmlns="http://www.w3.org/2000/svg" xmlns:xlink="http://www.w3.org/1999/xlink" x="0px" y="0px"
	 viewBox="0 0 60 60" enable-background="new 0 0 60 60" xml:space="preserve">
<g id="github">
	<g>
		<path d="M13.6,31.7c0,1.5,0.1,2.8,0.4,4c0.3,1.2,0.7,2.3,1.2,3.1c0.5,0.9,1.1,1.7,1.9,2.3c0.8,0.7,1.6,1.2,2.5,1.7
			c0.9,0.4,1.9,0.8,3,1c1.1,0.3,2.3,0.5,3.5,0.6c1.2,0.1,2.5,0.2,3.9,0.2c1.4,0,2.7-0.1,3.9-0.2c1.2-0.1,2.4-0.3,3.5-0.6
			c1.1-0.3,2.2-0.6,3.1-1s1.7-1,2.5-1.7c0.8-0.7,1.4-1.5,1.9-2.3c0.5-0.9,0.9-1.9,1.2-3.1c0.3-1.2,0.4-2.6,0.4-4
			c0-2.7-0.9-5-2.7-6.9c0.1-0.3,0.2-0.5,0.3-0.9c0.1-0.3,0.2-0.8,0.2-1.4s0-1.3-0.1-2.1c-0.1-0.8-0.4-1.6-0.7-2.4l-0.2,0
			c-0.2,0-0.5,0-0.8,0c-0.4,0-0.8,0.1-1.4,0.3c-0.5,0.1-1.2,0.4-2,0.8c-0.8,0.4-1.7,0.9-2.6,1.6C34.9,20.3,32.8,20,30,20
			c-2.7,0-4.9,0.2-6.4,0.6c-0.9-0.6-1.8-1.1-2.6-1.6s-1.5-0.7-2-0.8c-0.5-0.1-1-0.2-1.4-0.3c-0.4,0-0.7-0.1-0.8,0
			c-0.1,0-0.2,0-0.3,0.1c-0.3,0.8-0.6,1.6-0.7,2.4c-0.1,0.8-0.1,1.5-0.1,2.1c0.1,0.6,0.1,1.1,0.2,1.4c0.1,0.3,0.2,0.6,0.3,0.9
			C14.5,26.8,13.6,29.1,13.6,31.7z M17.6,35.8c0-1.5,0.7-3,2.1-4.2c0.4-0.4,0.9-0.7,1.5-0.9c0.6-0.2,1.2-0.3,1.9-0.3
			c0.7,0,1.4,0,2,0c0.6,0,1.4,0.1,2.4,0.2c0.9,0.1,1.8,0.1,2.4,0.1c0.7,0,1.5,0,2.4-0.1c0.9-0.1,1.7-0.1,2.4-0.2c0.6,0,1.3,0,2,0
			c0.7,0,1.3,0.1,1.9,0.3c0.6,0.2,1,0.5,1.5,0.9c1.4,1.3,2.1,2.7,2.1,4.2c0,0.9-0.1,1.7-0.3,2.5c-0.2,0.7-0.5,1.3-0.9,1.8
			s-0.9,0.9-1.5,1.2c-0.6,0.3-1.3,0.6-1.9,0.8c-0.6,0.2-1.4,0.3-2.3,0.4c-0.9,0.1-1.8,0.2-2.5,0.2c-0.7,0-1.7,0-2.8,0s-2.1,0-2.8,0
			c-0.7,0-1.6-0.1-2.5-0.2c-0.9-0.1-1.7-0.2-2.3-0.4c-0.6-0.2-1.2-0.4-1.9-0.8c-0.6-0.3-1.1-0.7-1.5-1.2c-0.4-0.5-0.7-1.1-0.9-1.8
			C17.8,37.5,17.6,36.7,17.6,35.8z M34.1,35.4c0,1.7,0.9,3.1,2.1,3.1c1.1,0,2.1-1.4,2.1-3.1s-0.9-3.1-2.1-3.1
			C35.1,32.4,34.1,33.7,34.1,35.4z M21.8,35.4c0,1.7,0.9,3.1,2.1,3.1c1.1,0,2.1-1.4,2.1-3.1s-0.9-3.1-2.1-3.1
			C22.7,32.4,21.8,33.7,21.8,35.4z"/>
	</g>
</g>
<g id="circle">
	<circle fill="none" stroke="#000000" stroke-width="2" stroke-miterlimit="10" cx="30" cy="30" r="28"/>
</g>
</svg>
