<?xml version="1.0" encoding="utf-8"?>
<!-- Generator: Adobe Illustrator 17.1.0, SVG Export Plug-In . SVG Version: 6.00 Build 0)  -->
<!DOCTYPE svg PUBLIC "-//W3C//DTD SVG 1.1//EN" "http://www.w3.org/Graphics/SVG/1.1/DTD/svg11.dtd">
<svg version="1.1" id="Layer_1" xmlns="http://www.w3.org/2000/svg" xmlns:xlink="http://www.w3.org/1999/xlink" x="0px" y="0px"
	 viewBox="0 0 60 60" enable-background="new 0 0 60 60" xml:space="preserve">
<g id="linkedin">
	<g enable-background="new    ">
		<path d="M22.5,18.7c0,1.5-1.2,2.7-3,2.7c-1.7,0-2.9-1.2-2.8-2.7c0-1.6,1.1-2.8,2.9-2.8C21.3,15.9,22.4,17.1,22.5,18.7z M16.8,41.2
			V23.6h5.5v17.6H16.8z"/>
		<path d="M26.7,29.2c0-2.2-0.1-4.1-0.1-5.6h4.8l0.3,2.4h0.1c0.7-1.1,2.5-2.8,5.4-2.8c3.6,0,6.3,2.4,6.3,7.6v10.4h-5.5v-9.8
			c0-2.3-0.8-3.8-2.8-3.8c-1.5,0-2.4,1-2.8,2.1c-0.1,0.3-0.2,0.9-0.2,1.4v10.2h-5.5V29.2z"/>
	</g>
</g>
<g id="circle">
	<circle fill="none" stroke="#000000" stroke-width="2" stroke-miterlimit="10" cx="30" cy="30" r="28"/>
</g>
</svg>
