<?xml version="1.0" encoding="utf-8"?>
<!-- Generator: Adobe Illustrator 17.1.0, SVG Export Plug-In . SVG Version: 6.00 Build 0)  -->
<!DOCTYPE svg PUBLIC "-//W3C//DTD SVG 1.1//EN" "http://www.w3.org/Graphics/SVG/1.1/DTD/svg11.dtd">
<svg version="1.1" id="logo" xmlns="http://www.w3.org/2000/svg" xmlns:xlink="http://www.w3.org/1999/xlink" x="0px" y="0px"
	 viewBox="0 0 250 60" enable-background="new 0 0 250 60" xml:space="preserve">
<path fill="none" stroke="#000000" stroke-width="5.3678" stroke-miterlimit="10" d="M50.2,29c1.8,2.5,1.2,5.9-1.3,7.6l-18.2,13
	c-2.5,1.8-5.9,1.2-7.6-1.3L10.3,30.5c-1.8-2.5-1.2-5.9,1.3-7.6l18.2-13c2.5-1.8,5.9-1.2,7.6,1.3L50.2,29z"/>
<path d="M29.9,30.7c-0.1,0.7-0.4,1.2-0.9,1.6c-0.5,0.4-1.1,0.5-1.8,0.4c-0.7-0.1-1.2-0.5-1.7-1.1c-0.4-0.6-0.6-1.3-0.5-2
	c0.1-0.7,0.4-1.2,0.9-1.6c0.5-0.4,1.1-0.5,1.8-0.4c0.2,0,0.3,0.1,0.5,0.1l-2-2.8c-0.5-0.7-2.2-0.4-3.5,0.6c-1.3,1-2.2,2.4-1.7,3.1
	l4.4,6.1c0.5,0.7,2.2,0.4,3.5-0.6c1.3-1,2.2-2.4,1.7-3.1l-0.7-0.9C29.9,30.3,29.9,30.5,29.9,30.7z"/>
<g>
	<path d="M37.5,26.3c-0.5,0.4-1.1,0.5-1.8,0.4c-0.7-0.1-1.2-0.5-1.7-1.1c-0.4-0.6-0.6-1.3-0.5-2c0.1-0.7,0.4-1.2,0.9-1.6
		c0.5-0.4,1.1-0.5,1.7-0.4l0,0l-1.7-2.4c-0.5-0.7-2.2-0.4-3.5,0.6c-1.3,1-2.2,2.4-1.7,3.1l4.4,6.1c0.5,0.7,2.2,0.4,3.5-0.6
		c1.3-1,2.2-2.4,1.7-3.1l-0.4-0.6C38.3,25.4,38,25.9,37.5,26.3z"/>
	<path display="none" fill="#FDF7FA" d="M37.8,24l-1.7-2.4c-0.6-0.1-1.2,0-1.7,0.4c-0.5,0.4-0.8,0.9-0.9,1.6c-0.1,0.7,0.1,1.3,0.5,2
		c0.4,0.6,1,1,1.7,1.1c0.7,0.1,1.3,0,1.8-0.4c0.5-0.4,0.8-0.9,0.9-1.5l0,0L37.8,24z"/>
</g>
<g>
	<g>
		<path d="M76.2,21.3l-4.7,21.8h-4.9l4.8-22.5H71c-2,0-3.5,0.5-4.5,1.4c-1.2,1.1-1.8,2.9-1.8,5.5c0,0.9,0.1,1.6,0.4,2.1
			c0.1,0.1,0.1,0.2,0.1,0.2c-1.8,0-2.9-0.6-3.4-1.7c-0.2-0.4-0.2-1.1-0.2-1.9s0.2-1.8,0.6-2.9c0.4-1.1,1.1-2,2-2.8
			c2-1.8,5-2.7,8.9-2.7c1.6,0,2.9,0.1,3.8,0.2s1.8,0.3,2.5,0.4c0.7,0.1,1.7,0.1,2.8,0.1s2.4-0.2,3.5-0.7c-0.1,2.9-1.5,4.3-4.3,4.3
			C80.4,22,78.7,21.8,76.2,21.3z"/>
		<path d="M96.9,37c-1.4,4.2-3.7,6.3-6.8,6.3c-2,0-3.1-1-3.3-3.1c-1.5,2.1-3.2,3.1-5.2,3.1s-3.3-1-4-2.9c-0.3-0.7-0.4-1.5-0.4-2.4
			c0-0.9,0.1-1.8,0.2-2.7c0.2-0.9,0.4-1.8,0.7-2.7c0.7-1.9,1.7-3.6,3-4.8c1.3-1.3,2.9-1.9,4.8-1.9c1,0,1.7,0.2,2.1,0.5
			c0.4,0.3,0.6,0.7,0.6,1.2v0.2l0.4-1.8h4.9l-2.4,11.6c-0.1,0.4-0.1,0.8-0.1,1.1c0,1,0.5,1.5,1.4,1.5c1.2,0,2.1-1.1,2.8-3.2H96.9z
			 M88.4,29.3c0-0.2-0.1-0.5-0.3-0.8c-0.2-0.3-0.6-0.5-1.2-0.5s-1.2,0.3-1.8,1c-1.4,1.6-2.3,4-2.7,7c-0.1,0.5-0.1,1-0.1,1.5
			c0,1,0.2,1.7,0.6,2.1c0.2,0.2,0.5,0.4,0.9,0.4c0.7,0,1.3-0.3,1.8-0.8c0.6-0.5,0.9-1.3,1.1-2.2L88.4,29.3z"/>
		<path d="M108.5,38.6c0,1,0.4,1.5,1.2,1.5c0.8,0,1.4-0.2,1.8-0.7s0.8-1.2,1.2-2.3h1.4c-1.3,3.8-3.1,5.9-5.3,6.2
			c-0.4,0-0.8,0.1-1.3,0.1s-1-0.1-1.5-0.3c-1.4-0.6-2.1-1.8-2.1-3.5c0-0.9,0.3-2.4,0.8-4.4s0.8-3.4,0.8-4.2c0-1.2-0.4-1.7-1.2-1.7
			s-1.5,0.6-2.2,1.9c-0.2,0.4-0.3,0.8-0.5,1.2l-2.3,10.9h-4.9l3.6-17h4.9l-0.4,1.8c1.1-1.3,2.4-1.9,4-1.9c1.1,0,2,0.3,2.7,0.9
			s1.1,1.5,1.1,2.7s-0.2,2.5-0.6,4l-0.8,3.3C108.5,37.5,108.5,38.1,108.5,38.6z"/>
		<path d="M117.3,38.5c0,1,0.3,1.5,1,1.5c0.6,0,1.2-0.3,1.7-0.8c0.4-0.5,0.8-1.2,1-2l2.4-11.1h4.9l-3.4,15.8c1-0.3,1.9-0.9,2.5-1.6
			c0.7-0.7,1.2-1.8,1.7-3.3h1.4c-0.9,2.9-2.3,4.8-4.4,5.8c-0.6,0.3-1.1,0.4-1.6,0.6l-0.5,2.5c-0.4,2.2-1.3,3.8-2.6,4.7
			c-1,0.7-2,1.1-3.3,1.1s-2.2-0.3-3-0.8s-1.1-1.4-1.1-2.6c0-2.1,1.8-3.7,5.5-4.9l0.4-1.8c-1.2,1.3-2.5,1.9-4.1,1.9
			c-1,0-1.9-0.3-2.6-1c-0.7-0.6-1-1.7-1-3.1c0-0.6,0.1-1.4,0.3-2.2l2.3-10.9h4.9l-2.4,11.6C117.4,37.9,117.3,38.2,117.3,38.5z
			 M119.4,44.9c-2.2,0.8-3.3,1.8-3.3,2.9c0,0.5,0.2,0.8,0.6,1c0.1,0.1,0.4,0.1,0.6,0.1s0.6-0.2,1-0.7c0.4-0.5,0.7-1.3,0.9-2.3
			L119.4,44.9z"/>
		<path d="M138.3,40.1c-1.4,2.1-3.1,3.2-5.1,3.2s-3.4-1-4.1-2.9c-0.3-0.7-0.4-1.5-0.4-2.4c0-0.9,0.1-1.8,0.2-2.7
			c0.2-0.9,0.4-1.8,0.7-2.7c0.7-1.9,1.7-3.6,3-4.8s2.9-1.9,4.8-1.9c1,0,1.7,0.2,2.1,0.5c0.4,0.3,0.6,0.7,0.6,1.2v0.2l0.4-1.8h4.9
			l-2.4,11.6c-0.1,0.4-0.1,0.8-0.1,1.2c0,0.8,0.5,1.2,1.4,1.2c0.3,0,0.5,0,0.7-0.1c-0.5,1.3-0.9,2.1-1.2,2.5c-0.6,0.6-1.3,1-2.2,1
			c-0.9,0-1.6-0.3-2.2-0.8C138.8,41.9,138.5,41.2,138.3,40.1z M139.9,29.3c0-0.2-0.1-0.5-0.3-0.8c-0.2-0.3-0.6-0.5-1.2-0.5
			s-1.2,0.3-1.8,1c-1.4,1.6-2.3,4-2.7,7c-0.1,0.5-0.1,1-0.1,1.5c0,1,0.2,1.7,0.6,2.1c0.2,0.2,0.5,0.4,0.9,0.4c0.7,0,1.3-0.3,1.8-0.8
			c0.6-0.5,0.9-1.3,1.1-2.2L139.9,29.3z"/>
		<path d="M168.2,21.9c0-1.8-0.8-2.7-2.3-2.7c-0.9,0-1.8,0.4-2.8,1.1c-0.9,0.7-1.7,1.6-2.4,2.8c-0.7,1.1-1.3,2.4-1.7,3.8
			s-0.6,2.6-0.6,3.7c0,1.9,0.3,3.4,1,4.5s1.6,1.6,2.9,1.6s2.3-0.4,2.9-1.3l1.5-6.5l4.4,0l-2.8,12.8c-0.6,2.8-1.5,4.9-2.8,6.3
			c-1.3,1.4-3.3,2.1-5.9,2.1c-1.5,0-2.7-0.5-3.5-1.4c-0.8-0.9-1.2-2-1.2-3.3s0.4-2.4,1.1-3.3c0.7-0.9,1.7-1.4,2.8-1.4
			c1.1,0,1.9,0.1,2.3,0.3c0.9,0.4,1.3,1,1.3,2c0,0.4-0.1,0.9-0.2,1.4c-0.7-0.6-1.4-0.9-2.1-0.9s-1.3,0.3-1.7,0.8
			c-0.4,0.5-0.6,1.1-0.6,1.7c0,0.6,0.2,1.1,0.5,1.6c0.3,0.5,0.8,0.7,1.4,0.7s1-0.1,1.3-0.2c1-0.3,1.8-1.7,2.3-4l1.4-6.1
			c-1.5,0.8-2.9,1.2-4.3,1.2c-2.5,0-4.4-0.9-5.6-2.6c-1-1.5-1.6-3.5-1.6-6.1c0-1.6,0.3-3.2,0.8-4.8c0.8-2.4,2.2-4.3,4.2-5.9
			c2-1.6,4.3-2.4,7.1-2.4c2.8,0,4.7,0.8,5.7,2.5c0.4,0.6,0.5,1.3,0.5,2.1c0,2.1-0.8,3.1-2.4,3.1c-1.1,0-1.8-0.3-2.3-0.9
			c0.4-0.1,0.7-0.5,1-1.1S168.2,22.2,168.2,21.9z"/>
		<path d="M170.8,43.1l3.6-17h4.9l-0.4,2.1c0.6-0.5,1.2-1,1.9-1.4c0.7-0.5,1.4-0.7,2.2-0.7c0.8,0,1.4,0.3,1.8,0.8s0.6,1,0.6,1.5
			c0,0.8-0.2,1.5-0.7,2c-0.4,0.5-1,0.8-1.6,0.8s-1-0.1-1.2-0.4c-0.2-0.3-0.3-0.6-0.4-0.9c0-0.3-0.1-0.5-0.2-0.7
			c-0.1-0.2-0.2-0.3-0.5-0.3c-0.5,0-0.9,0.1-1.2,0.3c-0.4,0.2-0.8,0.5-1.2,1l-2.7,12.9H170.8z"/>
		<path d="M195.4,37c-1.5,4.2-3.9,6.3-7.3,6.3c-0.9,0-1.7-0.3-2.4-1c-0.7-0.6-1-1.7-1-3.1c0-0.6,0.1-1.4,0.3-2.2l2.3-10.9h4.9
			l-2.4,11.6c-0.1,0.4-0.1,0.8-0.1,1.2c0,0.8,0.5,1.1,1.4,1.1c0.7,0,1.3-0.3,1.9-0.9c0.6-0.6,1-1.3,1.2-2.1H195.4z M193.3,21.6
			c0,0.8-0.3,1.4-0.8,1.9c-0.5,0.5-1.2,0.8-1.9,0.8c-0.7,0-1.4-0.3-1.9-0.8s-0.8-1.2-0.8-1.9s0.3-1.4,0.8-1.9
			c0.5-0.5,1.2-0.8,1.9-0.8c0.8,0,1.4,0.3,1.9,0.8S193.3,20.8,193.3,21.6z"/>
		<path d="M215,43.3c-2.9,0-4.3-1.3-4.3-3.8c0-0.9,0.3-2.4,0.8-4.4s0.8-3.4,0.8-4.2c0-1.2-0.4-1.7-1.2-1.7s-1.5,0.6-2.2,1.9
			c-0.2,0.4-0.3,0.8-0.5,1.2L206,43.1h-4.9l2.5-11.7c0.1-0.3,0.1-0.5,0.1-0.8c0-1-0.3-1.5-1-1.5c-0.7,0-1.2,0.3-1.7,0.9
			c-0.5,0.6-0.8,1.4-1.1,2.2l-2.3,10.9h-4.9l3.6-17h4.9l-0.4,1.8c1.1-1.3,2.5-1.9,4.2-1.9c2,0,3.2,1,3.5,2.9
			c1.3-1.9,2.8-2.9,4.7-2.9c1.1,0,2,0.3,2.7,0.9s1.1,1.5,1.1,2.6s-0.2,2.5-0.6,4l-0.8,3.3c-0.2,0.7-0.3,1.3-0.3,1.8
			c0,1,0.4,1.5,1.2,1.5c0.8,0,1.4-0.2,1.8-0.7s0.8-1.2,1.2-2.3h1.4c-0.8,2.5-1.9,4.3-3.2,5.3C216.9,43,215.9,43.3,215,43.3z"/>
		<path d="M233.7,37c-2.5,4.2-5.7,6.3-9.3,6.3c-1.6,0-2.9-0.4-3.9-1.3c-1-0.8-1.4-2.2-1.4-4.1c0-2.6,0.7-5.1,2-7.5
			c1-1.8,2.4-3.2,4.1-4c0.9-0.4,1.8-0.6,2.8-0.6c1.6,0,2.6,0.3,3.2,0.9c0.6,0.6,0.8,1.4,0.8,2.4c0,1.9-0.8,3.6-2.3,4.9
			c-1.6,1.4-3.4,2.1-5.5,2.2c-0.1,0.6-0.1,1.1-0.1,1.4c0,1.2,0.2,1.9,0.6,2.3c0.4,0.4,1,0.6,1.7,0.6c1.3,0,2.4-0.3,3.3-0.9
			c0.9-0.6,1.8-1.4,2.8-2.6H233.7z M229.4,28.8c0-0.8-0.3-1.2-0.8-1.2c-0.8,0-1.6,0.8-2.4,2.2c-0.8,1.4-1.3,3-1.7,4.8
			c1.3-0.1,2.5-0.7,3.4-1.8C228.9,31.6,229.4,30.3,229.4,28.8z"/>
		<path d="M242.5,25.1c0.1,2.1,0.2,3.9,0.3,5.3l0.4,5.4c0,0.5,0.1,1.1,0.1,1.8s-0.1,1.3-0.3,1.9c-0.2,0.6-0.5,1.1-0.8,1.5
			c-0.7,0.8-1.5,1.4-2.5,1.8c-1,0.4-2,0.6-3,0.6c-1.7,0-3-0.4-3.8-1.3c-0.9-0.9-1.3-1.8-1.3-2.8c0-1,0.2-1.7,0.6-2.3
			s0.8-0.9,1.2-1.1c1.6-2.9,3-6.2,4.2-10.1L242.5,25.1z M235.1,40.6c2.2,0,3.3-1.1,3.3-3.2c0-0.6,0-1.3-0.1-2.1l-0.2-1.9
			c-0.1-1.2-0.2-2.6-0.3-4c-0.6,1.9-1.5,4-2.8,6.4c0.5,0.2,0.8,0.6,0.8,1.1c0,0.5-0.1,0.9-0.4,1.2c-0.3,0.3-0.6,0.5-1.1,0.5
			c-0.5,0-0.8-0.1-0.9-0.4C233.3,39.8,233.9,40.6,235.1,40.6z"/>
	</g>
</g>
</svg>
